<?xml version="1.0" encoding="UTF-8"?>
<svg version="1.1" xmlns="http://www.w3.org/2000/svg" width="128" height="128">
<path d="M0 0 C0.88666855 -0.0049649 1.7733371 -0.00992981 2.68687439 -0.01504517 C5.61832457 -0.02964241 8.54972063 -0.03646473 11.48120117 -0.04199219 C13.52137758 -0.04774563 15.56155397 -0.05350334 17.60173035 -0.05926514 C21.87967175 -0.06976818 26.1575944 -0.07561541 30.43554688 -0.07910156 C35.90982939 -0.08458488 41.38386302 -0.1086125 46.85806751 -0.13707352 C51.07289854 -0.15572214 55.28766988 -0.16090669 59.50253868 -0.16243744 C61.52030485 -0.16545945 63.53807009 -0.17347269 65.55579567 -0.18662262 C68.3824404 -0.20372953 71.20848037 -0.20179149 74.03515625 -0.1953125 C74.86397308 -0.20452728 75.69278992 -0.21374207 76.54672241 -0.22323608 C84.02841626 -0.16967608 89.66351459 1.91287777 95.21166992 7.16113281 C99.69477842 13.2631416 100.3631578 17.62600198 100.37280273 25.03540039 C100.38025009 26.39685432 100.38025009 26.39685432 100.3878479 27.78581238 C100.40246857 30.79243729 100.4092715 33.79900943 100.41479492 36.80566406 C100.4205466 38.89450584 100.42630433 40.98334759 100.43206787 43.07218933 C100.44257769 47.45446011 100.44842044 51.83671253 100.4519043 56.21899414 C100.45738793 61.83128463 100.48141334 67.44333238 100.50987625 73.05554676 C100.5285105 77.37156378 100.53370866 81.68752243 100.53524017 86.00357628 C100.53826562 88.07240818 100.54629048 90.14123909 100.55942535 92.21003151 C100.57650152 95.10643543 100.57460164 98.00224765 100.56811523 100.89868164 C100.57733002 101.75136627 100.5865448 102.6040509 100.59603882 103.48257446 C100.54491991 110.77838877 98.18894803 115.75723086 93.21166992 121.16113281 C87.11464304 125.64058114 82.75666585 126.31261084 75.35327148 126.32226562 C74.44724182 126.32723053 73.54121216 126.33219543 72.60772705 126.33731079 C69.60590865 126.35193292 66.60414311 126.35873505 63.60229492 126.36425781 C61.51584878 126.37000989 59.42940265 126.37576761 57.34295654 126.38153076 C52.96488193 126.39204135 48.58682569 126.39788342 44.20874023 126.40136719 C38.60551599 126.40684741 33.0025353 126.43086523 27.39938736 126.45933914 C23.08761899 126.47798748 18.77590898 126.48317233 14.4641037 126.48470306 C12.39888937 126.48772591 10.33367598 126.49574201 8.26850128 126.50888824 C5.37469618 126.52599199 2.48148199 126.52405767 -0.41235352 126.51757812 C-1.26144287 126.52679291 -2.11053223 126.53600769 -2.98535156 126.54550171 C-10.47259707 126.49313209 -16.28956076 124.51128674 -21.78833008 119.16113281 C-25.97081762 113.00710233 -26.9395906 107.9025549 -26.94946289 100.59399414 C-26.9544278 99.71883148 -26.9593927 98.84366882 -26.96450806 97.94198608 C-26.97912975 95.04237077 -26.98593271 92.14281021 -26.99145508 89.24316406 C-26.99720777 87.22637429 -27.00296549 85.20958454 -27.00872803 83.1927948 C-27.0192389 78.96015162 -27.02508059 74.72752744 -27.02856445 70.49487305 C-27.0340407 65.08231391 -27.05804983 59.67000741 -27.08653641 54.25752735 C-27.10520247 50.08897683 -27.11037057 45.92048659 -27.11190033 41.75189781 C-27.11491986 39.75728669 -27.12292467 37.76267645 -27.13608551 35.76810646 C-27.15322429 32.97029315 -27.15124635 30.17308928 -27.14477539 27.37524414 C-27.15399017 26.55780228 -27.16320496 25.74036041 -27.17269897 24.89814758 C-27.12449632 18.21323312 -25.89333301 12.66437954 -21.47583008 7.41113281 C-14.11536386 1.24888202 -9.40801651 0.01259668 0 0 Z " fill="#024B7C" transform="translate(26.788330078125,0.8388671875)"/>
<path d="M0 0 C1.45280113 -0.04346054 1.45280113 -0.04346054 2.93495178 -0.08779907 C7.37895902 -0.18574487 11.82282195 -0.25938217 16.26757812 -0.31347656 C18.6041946 -0.35006968 20.94060362 -0.40457201 23.27636719 -0.47753906 C45.2071878 -1.15185547 45.2071878 -1.15185547 51.53295898 4.57666016 C52.79164775 6.11491793 54.02585066 7.67371739 55.22827148 9.25634766 C56.72356414 10.4555745 58.24167252 11.62748206 59.79077148 12.75634766 C64.92072071 18.04112433 64.32636571 24.68626909 64.24145508 31.59326172 C64.22658573 34.59686935 64.31273596 37.5900775 64.40405273 40.59228516 C64.45208518 42.77191984 64.49767301 44.95160983 64.54077148 47.13134766 C64.57106445 48.18386719 64.60135742 49.23638672 64.63256836 50.32080078 C64.6396582 51.30757812 64.64674805 52.29435547 64.65405273 53.31103516 C64.66863525 54.19259277 64.68321777 55.07415039 64.69824219 55.98242188 C64.22827148 58.25634766 64.22827148 58.25634766 62.38916016 60.00292969 C60.22827148 61.25634766 60.22827148 61.25634766 57.22827148 62.25634766 C58.92983398 62.96791016 58.92983398 62.96791016 60.66577148 63.69384766 C64.22827148 65.25634766 64.22827148 65.25634766 65.22827148 66.25634766 C65.59066271 69.66240136 65.59986247 73.08362459 65.66577148 76.50634766 C65.7115332 77.46154297 65.75729492 78.41673828 65.80444336 79.40087891 C65.81926758 80.32771484 65.8340918 81.25455078 65.84936523 82.20947266 C65.87442139 83.05670898 65.89947754 83.90394531 65.92529297 84.77685547 C65.07198507 87.81230031 63.61728387 89.38790537 61.11271667 91.2739563 C57.5476543 93.13248022 53.92064012 92.98177267 49.97436523 92.96337891 C49.07823013 92.97850021 48.18209503 92.99362152 47.25880432 93.00920105 C44.39420822 93.05197057 41.53065358 93.06086614 38.66577148 93.06884766 C36.79920627 93.09202775 34.93266692 93.11740029 33.06616211 93.14501953 C29.33593585 93.19579057 25.60677848 93.22140508 21.8762207 93.22753906 C18.02104751 93.23567747 14.17233854 93.3018026 10.31860352 93.40625 C9.36502457 93.4249968 8.41144562 93.44374359 7.42897034 93.46305847 C5.61669016 93.49878263 3.80462045 93.54945088 1.99327087 93.61763 C-1.80920698 93.67290984 -4.30857337 93.46594908 -7.81005859 91.88134766 C-10.85190659 87.8109121 -10.54483671 83.95842657 -10.56860352 78.99462891 C-10.59218933 77.94624344 -10.61577515 76.89785797 -10.64007568 75.81770325 C-10.71049275 72.2971535 -10.74244492 68.77746571 -10.77172852 65.25634766 C-10.80814292 62.71125298 -10.84526905 60.16616841 -10.88305664 57.62109375 C-10.96935842 50.93006726 -11.00255205 44.24011143 -11.01196289 37.54858398 C-11.01757254 34.07205636 -11.0419558 30.59589626 -11.06993484 27.11948681 C-11.09291645 23.76276965 -11.09498976 20.40610815 -11.09985352 17.04931641 C-11.11220032 15.80578903 -11.12454712 14.56226166 -11.13726807 13.28105164 C-11.13426697 12.13747696 -11.13126587 10.99390228 -11.12817383 9.81567383 C-11.13181946 8.81106613 -11.13546509 7.80645844 -11.13922119 6.77140808 C-10.77172852 4.25634766 -10.77172852 4.25634766 -9.43695068 2.47138977 C-6.42424453 0.27314564 -3.60348722 0.10549162 0 0 Z " fill="#EFF2EE" transform="translate(37.771728515625,15.74365234375)"/>
<path d="M0 0 C0.66 0.33 1.32 0.66 2 1 C2 1.66 2 2.32 2 3 C3.65 3.33 5.3 3.66 7 4 C7 4.66 7 5.32 7 6 C8.65 6 10.3 6 12 6 C11.875 8.3125 11.875 8.3125 11 11 C7.9375 12.8125 7.9375 12.8125 5 14 C6.134375 14.474375 7.26875 14.94875 8.4375 15.4375 C12 17 12 17 13 18 C13.04063832 19.66617115 13.042721 21.33388095 13 23 C11.02 23 9.04 23 7 23 C6.773125 23.721875 6.54625 24.44375 6.3125 25.1875 C4.69120579 28.66170188 3.00077497 30.61301991 0 33 C-3.1875 33.4375 -3.1875 33.4375 -6 33 C-8 31 -8 31 -8.125 27.375 C-8.08375 26.26125 -8.0425 25.1475 -8 24 C-6.35 23.67 -4.7 23.34 -3 23 C-3 21.35 -3 19.7 -3 18 C-1.68 17.67 -0.36 17.34 1 17 C1.33 15.68 1.66 14.36 2 13 C1.38125 12.87625 0.7625 12.7525 0.125 12.625 C-2 12 -2 12 -4 10 C-4.625 7.375 -4.625 7.375 -5 5 C-4.360625 4.731875 -3.72125 4.46375 -3.0625 4.1875 C-0.66868314 3.11332248 -0.66868314 3.11332248 0 0 Z " fill="#80EAD6" transform="translate(90,64)"/>
<path d="M0 0 C0.33 0 0.66 0 1 0 C1 6.6 1 13.2 1 20 C-0.65 20 -2.3 20 -4 20 C-4.33 19.34 -4.66 18.68 -5 18 C-5.66 17.835 -6.32 17.67 -7 17.5 C-7.66 17.335 -8.32 17.17 -9 17 C-9.33 16.34 -9.66 15.68 -10 15 C-11.65 16.65 -13.3 18.3 -15 20 C-13.8321734 23.81413002 -13.8321734 23.81413002 -10.875 26.3125 C-10.25625 26.539375 -9.6375 26.76625 -9 27 C-9.33 28.65 -9.66 30.3 -10 32 C-11.32 32 -12.64 32 -14 32 C-14 33.65 -14 35.3 -14 37 C-16.475 37.495 -16.475 37.495 -19 38 C-18.81535634 42.34184202 -18.81535634 42.34184202 -17 46 C-14.2140814 46.67012422 -14.2140814 46.67012422 -11 46 C-8.08625404 43.43536646 -5.73600734 40.47201469 -4 37 C-2.02 37 -0.04 37 2 37 C2 42.28 2 47.56 2 53 C1.67 53 1.34 53 1 53 C1 49.37 1 45.74 1 42 C-3.06790181 43.59636147 -3.06790181 43.59636147 -4.625 46.625 C-7.42395072 49.42395072 -8.1788692 49.37586886 -12 49.4375 C-15.54086599 49.34573975 -17.9265734 48.77148894 -21 47 C-21 46.34 -21 45.68 -21 45 C-21.66 45 -22.32 45 -23 45 C-23.05422947 43.5629191 -23.09289723 42.12524538 -23.125 40.6875 C-23.14820312 39.88699219 -23.17140625 39.08648437 -23.1953125 38.26171875 C-23 36 -23 36 -21 33 C-20.34 33 -19.68 33 -19 33 C-18.67 32.01 -18.34 31.02 -18 30 C-17.34 30 -16.68 30 -16 30 C-16.350625 29.01 -16.70125 28.02 -17.0625 27 C-18.29765094 22.65932669 -17.95433168 19.40460773 -17 15 C-15.875 13 -15.875 13 -14 12 C-8.86408392 11.50616192 -4.81800521 12.42677381 0 14 C0 9.38 0 4.76 0 0 Z " fill="#A2EFDC" transform="translate(101,50)"/>
<path d="M0 0 C16.83 0 33.66 0 51 0 C50.67 1.32 50.34 2.64 50 4 C38.85287768 5.01368644 27.80737474 5.1201299 16.625 5.0625 C14.90625132 5.05746967 13.1875012 5.05290951 11.46875 5.04882812 C7.31246349 5.0379561 3.1562483 5.02077804 -1 5 C-0.67 3.35 -0.34 1.7 0 0 Z " fill="#628FB3" transform="translate(39,37)"/>
<path d="M0 0 C1.65 0 3.3 0 5 0 C5.33 0.99 5.66 1.98 6 3 C6.99 3.33 7.98 3.66 9 4 C11.73124979 6.10696412 12.84497518 7.37990073 13.6875 10.75 C12.66460892 15.58548512 9.81460701 18.9084713 6 22 C3.26171875 22.73046875 3.26171875 22.73046875 1 23 C1 21.9275 1 20.855 1 19.75 C0.42313825 16.01358689 0.42313825 16.01358689 -1.84765625 14.64453125 C-3.87193771 13.65559657 -5.88537164 12.7755243 -8 12 C-7.401875 11.71125 -6.80375 11.4225 -6.1875 11.125 C-3.80672208 9.95257974 -3.80672208 9.95257974 -1 8 C-0.42251197 6.03638136 -0.42251197 6.03638136 -0.3125 3.875 C-0.209375 2.59625 -0.10625 1.3175 0 0 Z " fill="#019CA1" transform="translate(102,66)"/>
<path d="M0 0 C0.5625 1.9375 0.5625 1.9375 1 4 C0 5 0 5 -2.05641174 5.12025452 C-2.96020065 5.11803391 -3.86398956 5.11581329 -4.79516602 5.11352539 C-5.81614883 5.11344986 -6.83713165 5.11337433 -7.88905334 5.11329651 C-8.9994548 5.10813522 -10.10985626 5.10297394 -11.25390625 5.09765625 C-12.38448959 5.0962413 -13.51507294 5.09482635 -14.67991638 5.09336853 C-18.30747065 5.08775019 -21.93496424 5.07519458 -25.5625 5.0625 C-28.01497307 5.05748736 -30.4674471 5.05292405 -32.91992188 5.04882812 C-38.94663545 5.0377748 -44.97331339 5.02101884 -51 5 C-50.67 3.68 -50.34 2.36 -50 1 C-33.324506 0.34269989 -16.68951793 -0.16415919 0 0 Z " fill="#5D8DB2" transform="translate(89,49)"/>
<path d="M0 0 C2.62883769 3.94325653 2.28032011 7.3146289 2.25878906 11.89013672 C2.2622937 12.79937897 2.26579834 13.70862122 2.26940918 14.64541626 C2.27822531 17.65691725 2.27237674 20.66818404 2.265625 23.6796875 C2.26697192 25.77092535 2.26891267 27.86216289 2.27142334 29.95339966 C2.27437464 34.33989437 2.27007761 38.72630771 2.26074219 43.11279297 C2.24936177 48.73410987 2.25589819 54.35523549 2.26788712 59.97654533 C2.27511755 64.29681842 2.27281208 68.61704625 2.26763153 72.93732071 C2.26629758 75.00975695 2.26793384 77.08219731 2.27259064 79.15462875 C2.27767367 82.0535544 2.26991987 84.95217153 2.25878906 87.85107422 C2.26283752 88.70735413 2.26688599 89.56363403 2.27105713 90.44586182 C2.24046674 94.74976552 2.00144723 98.07737947 0 102 C-0.78847843 99.21151662 -1.12544731 96.73769869 -1.12698364 93.84321594 C-1.12980347 93.0229895 -1.13262329 92.20276306 -1.13552856 91.35768127 C-1.13249222 90.02107704 -1.13249222 90.02107704 -1.12939453 88.6574707 C-1.13114685 87.71239655 -1.13289917 86.76732239 -1.13470459 85.79360962 C-1.13910478 82.67098147 -1.13619225 79.54840997 -1.1328125 76.42578125 C-1.1334859 74.25912973 -1.13445622 72.09247829 -1.13571167 69.92582703 C-1.13718602 65.3873116 -1.13504188 60.84881587 -1.13037109 56.31030273 C-1.12466376 50.47904304 -1.12796082 44.64782926 -1.13394356 38.81657124 C-1.13754756 34.34463654 -1.13641151 29.87271283 -1.13381577 25.40077782 C-1.13314658 23.24967633 -1.13397463 21.09857386 -1.13629532 18.94747353 C-1.13882031 15.94973711 -1.1349839 12.95207644 -1.12939453 9.9543457 C-1.13141876 9.05720352 -1.13344299 8.16006134 -1.13552856 7.23573303 C-1.1142645 1.1142645 -1.1142645 1.1142645 0 0 Z " fill="#0B4770" transform="translate(125,14)"/>
<path d="M0 0 C4.06593407 6.0989011 4.06593407 6.0989011 3.8125 9.5625 C3 12 3 12 1.5 13.4375 C-0.7672302 15.79919812 -0.81070139 17.7819236 -1 21 C-0.1552144 24.28861095 -0.1552144 24.28861095 1 27 C3.7446344 27.58776634 3.7446344 27.58776634 7 27 C9.91808996 24.44415569 12.26539719 21.46920561 14 18 C15.98 18 17.96 18 20 18 C20 23.28 20 28.56 20 34 C19.67 34 19.34 34 19 34 C19 30.37 19 26.74 19 23 C14.93209819 24.59636147 14.93209819 24.59636147 13.375 27.625 C10.57604928 30.42395072 9.8211308 30.37586886 6 30.4375 C2.45913401 30.34573975 0.0734266 29.77148894 -3 28 C-3 27.34 -3 26.68 -3 26 C-3.66 26 -4.32 26 -5 26 C-5.05422947 24.5629191 -5.09289723 23.12524538 -5.125 21.6875 C-5.14820312 20.88699219 -5.17140625 20.08648437 -5.1953125 19.26171875 C-5 17 -5 17 -3 14 C-2.34 14 -1.68 14 -1 14 C-0.67 13.01 -0.34 12.02 0 11 C0.66 11 1.32 11 2 11 C1.67 9.9275 1.34 8.855 1 7.75 C0 4 0 4 0 0 Z " fill="#BCF1E2" transform="translate(83,69)"/>
<path d="M0 0 C12.21 0 24.42 0 37 0 C37 1.32 37 2.64 37 4 C24.46 4 11.92 4 -1 4 C-0.67 2.68 -0.34 1.36 0 0 Z " fill="#588BAF" transform="translate(39,63)"/>
<path d="M0 0 C0.5516684 0.32375107 1.10333679 0.64750214 1.67172241 0.98106384 C4.37288 2.1631854 6.30996211 2.27002097 9.25244141 2.30297852 C10.30098297 2.31962051 11.34952454 2.33626251 12.42984009 2.35340881 C13.55900848 2.36182297 14.68817688 2.37023712 15.8515625 2.37890625 C17.0207724 2.39590073 18.1899823 2.4128952 19.3946228 2.43040466 C23.13802665 2.48354958 26.88142127 2.52378991 30.625 2.5625 C34.34709506 2.60662122 38.06910997 2.65357434 41.79110718 2.70530701 C44.1061705 2.73690699 46.42130282 2.76390279 48.73648071 2.78553772 C55.21066248 2.86735447 61.57078438 3.22495693 68 4 C68 4.33 68 4.66 68 5 C55.06737256 5.87644284 42.1701509 6.21535994 29.20849609 6.24023438 C26.08015255 6.25014203 22.9524148 6.28138818 19.82421875 6.3125 C17.82292049 6.31901427 15.82161765 6.32427088 13.8203125 6.328125 C12.42668991 6.3466452 12.42668991 6.3466452 11.00491333 6.36553955 C4.67355791 6.34351076 4.67355791 6.34351076 1.38623047 4.66699219 C0 3 0 3 0 0 Z " fill="#003B68" transform="translate(29,106)"/>
<path d="M0 0 C2.475 0.495 2.475 0.495 5 1 C2.98032811 5.41709389 0.05893956 8.38119026 -3.3125 11.8125 C-3.88162109 12.42287109 -4.45074219 13.03324219 -5.03710938 13.66210938 C-9.28878148 17.99188338 -9.28878148 17.99188338 -12.73828125 18.03125 C-15.95103971 16.56636531 -17.81928475 14.75796341 -20 12 C-19.8125 9.6875 -19.8125 9.6875 -19 8 C-16.33333333 9.33333333 -13.66666667 10.66666667 -11 12 C-9.35113941 10.37807179 -7.7059976 8.75236228 -6.0625 7.125 C-5.14597656 6.22007813 -4.22945312 5.31515625 -3.28515625 4.3828125 C-0.98812373 2.22317745 -0.98812373 2.22317745 0 0 Z " fill="#5D8EB1" transform="translate(59,79)"/>
<path d="M0 0 C0.66 0.33 1.32 0.66 2 1 C2 1.66 2 2.32 2 3 C3.65 3.33 5.3 3.66 7 4 C7 4.66 7 5.32 7 6 C8.65 6 10.3 6 12 6 C11.9375 8.3125 11.9375 8.3125 11 11 C7.18230978 13.3205568 5.11044825 14.23047039 0.6875 13.3125 C-2 12 -2 12 -4 10 C-4.625 7.375 -4.625 7.375 -5 5 C-4.360625 4.731875 -3.72125 4.46375 -3.0625 4.1875 C-0.66868314 3.11332248 -0.66868314 3.11332248 0 0 Z " fill="#7CEAD5" transform="translate(90,64)"/>
<path d="M0 0 C1.32 0 2.64 0 4 0 C4 0.99 4 1.98 4 3 C2.51886719 2.85691406 2.51886719 2.85691406 1.0078125 2.7109375 C-0.27351563 2.60007812 -1.55484375 2.48921875 -2.875 2.375 C-4.78925781 2.20097656 -4.78925781 2.20097656 -6.7421875 2.0234375 C-7.81726563 2.01570313 -8.89234375 2.00796875 -10 2 C-12.87082026 4.87082026 -12.88008607 8.0992703 -13 12 C-12.7525 13.2375 -12.505 14.475 -12.25 15.75 C-12.12625 17.35875 -12.12625 17.35875 -12 19 C-13.63604196 20.37073786 -15.30678061 21.70055256 -17 23 C-18.03092799 25.66494884 -18.48111856 28.16973762 -19 31 C-19.99 29.68 -20.98 28.36 -22 27 C-21.38003922 25.70590711 -20.75383647 24.41480327 -20.125 23.125 C-19.77695313 22.40570313 -19.42890625 21.68640625 -19.0703125 20.9453125 C-18 19 -18 19 -16 17 C-15.60235737 15.01178687 -15.26224651 13.01055661 -15 11 C-15.66 11 -16.32 11 -17 11 C-17.44833426 7.14432538 -17.33120115 5.47009195 -15.0625 2.25 C-10.302586 -1.24707968 -5.17643083 -3.45095389 0 0 Z " fill="#D5F4E9" transform="translate(97,61)"/>
<path d="M0 0 C5.44614648 0.87841072 5.44614648 0.87841072 8 2 C9.1875 4.9375 9.1875 4.9375 10 8 C10.845625 8.45375 11.69125 8.9075 12.5625 9.375 C15 11 15 11 15.72265625 12.78125 C16.14789267 14.99413081 16.29489298 16.76409498 16 19 C13.9375 21.625 13.9375 21.625 11 24 C9.97265269 25.09810848 8.95186661 26.2023896 7.9375 27.3125 C5 30 5 30 1 30 C1 29.34 1 28.68 1 28 C1.70125 27.814375 2.4025 27.62875 3.125 27.4375 C7.12633536 25.43683232 9.61291232 22.76576868 12 19 C13.00076997 15.9117496 13.00076997 15.9117496 12 13 C10.15124056 11.0258085 8.20000294 9.61632869 6 8 C5.67 7.34 5.34 6.68 5 6 C2.47266765 5.34444881 2.47266765 5.34444881 0 5 C0 3.35 0 1.7 0 0 Z " fill="#017589" transform="translate(102,61)"/>
<path d="M0 0 C3.12290635 0.48578543 5.99580359 0.9986012 9 2 C11.81354711 2.12026065 14.60417015 2.18537479 17.41870117 2.20532227 C18.70682961 2.22017166 18.70682961 2.22017166 20.02098083 2.23532104 C22.86161535 2.26692766 25.7022666 2.29169021 28.54296875 2.31640625 C30.51166724 2.3369765 32.48036132 2.35797299 34.4490509 2.37937927 C39.63248118 2.43459262 44.81595127 2.48400518 49.99945068 2.53222656 C55.28808132 2.58244694 60.57665409 2.63813021 65.86523438 2.69335938 C76.24344016 2.80093195 86.62169617 2.90237896 97 3 C97 3.33 97 3.66 97 4 C85.38639101 4.06957658 73.7728318 4.12285027 62.15905666 4.15543652 C56.76603764 4.17107798 51.37316144 4.19228869 45.98022461 4.22631836 C40.7736426 4.25896572 35.5671978 4.27686444 30.36052132 4.28463173 C28.37624007 4.29016556 26.39196614 4.30097181 24.40774345 4.31719017 C21.62379733 4.33903579 18.84041483 4.34196393 16.05639648 4.34057617 C14.83179718 4.35675491 14.83179718 4.35675491 13.5824585 4.3732605 C8.32269154 4.34497605 4.70546959 3.3715414 0 1 C0 0.67 0 0.34 0 0 Z " fill="#0B3555" transform="translate(10,123)"/>
<path d="M0 0 C0.33 0 0.66 0 1 0 C1 6.6 1 13.2 1 20 C-0.65 20 -2.3 20 -4 20 C-4.33 19.34 -4.66 18.68 -5 18 C-5.66 17.835 -6.32 17.67 -7 17.5 C-7.66 17.335 -8.32 17.17 -9 17 C-9.33 16.34 -9.66 15.68 -10 15 C-11.32 15 -12.64 15 -14 15 C-14.33 15.66 -14.66 16.32 -15 17 C-15.66 17 -16.32 17 -17 17 C-15.125 13.125 -15.125 13.125 -14 12 C-8.8255313 11.68953188 -4.85269066 12.41544795 0 14 C0 9.38 0 4.76 0 0 Z " fill="#AEEADD" transform="translate(101,50)"/>
<path d="M0 0 C0.66 0.33 1.32 0.66 2 1 C0.38731308 3.71224618 -1.24901874 6.37352812 -3 9 C-4.98684692 9.32279968 -4.98684692 9.32279968 -7.44970703 9.2487793 C-8.37051056 9.22853195 -9.29131409 9.20828461 -10.24002075 9.18742371 C-11.23589203 9.15006607 -12.23176331 9.11270844 -13.2578125 9.07421875 C-14.78509476 9.03455742 -14.78509476 9.03455742 -16.3432312 8.99409485 C-19.60440351 8.90612443 -22.86448794 8.79704669 -26.125 8.6875 C-28.33199191 8.62426287 -30.53902355 8.56239612 -32.74609375 8.50195312 C-38.16462414 8.35055064 -43.58240901 8.18180124 -49 8 C-49 7.67 -49 7.34 -49 7 C-47.08537964 6.98598145 -47.08537964 6.98598145 -45.13208008 6.97167969 C-40.38872598 6.93175661 -35.64601888 6.86599097 -30.90307617 6.79248047 C-28.85172854 6.76428436 -26.80027253 6.74306307 -24.7487793 6.72900391 C-21.79679946 6.70755576 -18.8461207 6.66089552 -15.89453125 6.609375 C-14.52238213 6.60753204 -14.52238213 6.60753204 -13.12251282 6.60565186 C-8.90328933 6.50896867 -6.59031137 6.3695518 -2.9440918 4.08691406 C-0.9585591 2.15248304 -0.9585591 2.15248304 0 0 Z " fill="#1C496E" transform="translate(103,101)"/>
<path d="M0 0 C0.66 0.33 1.32 0.66 2 1 C0.37660195 2.70884005 -1.29319053 4.37446717 -3 6 C-3.66 6 -4.32 6 -5 6 C-8.11235652 13.73499865 -8.53329297 20.7749735 -8.6875 29.0625 C-8.72166016 30.30966797 -8.75582031 31.55683594 -8.79101562 32.84179688 C-8.87288731 35.89444127 -8.94223628 38.94682034 -9 42 C-9.33 42 -9.66 42 -10 42 C-10.25681682 37.66784654 -10.47545934 33.33455753 -10.6875 29 C-10.76033203 27.77925781 -10.83316406 26.55851562 -10.90820312 25.30078125 C-11.29373539 16.90978488 -11.23129863 10.71599342 -5.5 4.125 C-3 2 -3 2 0 0 Z " fill="#094467" transform="translate(11,4)"/>
<path d="M0 0 C0.66 0 1.32 0 2 0 C2.2475 0.78375 2.495 1.5675 2.75 2.375 C4.15389099 5.32317108 5.00675737 5.9024777 8 7 C6.35 7.33 4.7 7.66 3 8 C2.67 9.98 2.34 11.96 2 14 C0 12 0 12 -1 9 C-3.01508358 8.26676204 -3.01508358 8.26676204 -5 8 C-5 7.34 -5 6.68 -5 6 C-3.35 5.67 -1.7 5.34 0 5 C0 3.35 0 1.7 0 0 Z " fill="#14A3A6" transform="translate(87,82)"/>
<path d="M0 0 C0.66 0 1.32 0 2 0 C2.05821935 3.89577024 2.0936703 7.79142802 2.125 11.6875 C2.14175781 12.79029297 2.15851563 13.89308594 2.17578125 15.02929688 C2.18222656 16.09599609 2.18867187 17.16269531 2.1953125 18.26171875 C2.20578613 19.24100342 2.21625977 20.22028809 2.22705078 21.22924805 C1.98597685 24.17112772 1.23055542 26.33237726 0 29 C-1.05127928 25.61608422 -1.04087598 22.66796575 -0.87890625 19.140625 C-0.83056641 18.02558594 -0.78222656 16.91054687 -0.73242188 15.76171875 C-0.64831055 14.02341797 -0.64831055 14.02341797 -0.5625 12.25 C-0.51029297 11.07566406 -0.45808594 9.90132812 -0.40429688 8.69140625 C-0.27473776 5.79399336 -0.13977553 2.89693507 0 0 Z " fill="#04436A" transform="translate(125,87)"/>
<path d="M0 0 C2 2 2 2 2.0625 4.1875 C0.67493029 7.86047866 -1.55540616 9.81452495 -4.40625 12.44921875 C-6.10135232 13.9284043 -6.10135232 13.9284043 -7 16 C-7.99 16.391875 -8.98 16.78375 -10 17.1875 C-11.485 18.0846875 -11.485 18.0846875 -13 19 C-13.97873538 22.59385054 -13.97873538 22.59385054 -14 26 C-14.33 26 -14.66 26 -15 26 C-15 22.7 -15 19.4 -15 16 C-14.01 15.7215625 -14.01 15.7215625 -13 15.4375 C-8.24005515 13.15669309 -3.36450307 9.87381055 -1.04296875 4.984375 C-0.41302428 2.89330749 -0.41302428 2.89330749 0 0 Z " fill="#106481" transform="translate(118,75)"/>
<path d="M0 0 C1.65 0 3.3 0 5 0 C5 4.95 5 9.9 5 15 C4.67 15 4.34 15 4 15 C4 11.37 4 7.74 4 4 C-0.0084034 6.0042017 -1.41409657 7.49055963 -4 11 C-4.99 10.67 -5.98 10.34 -7 10 C-6.401875 9.649375 -5.80375 9.29875 -5.1875 8.9375 C-2.19535245 6.28731217 -1.40462949 3.72226816 0 0 Z " fill="#C9EEE5" transform="translate(98,88)"/>
<path d="M0 0 C1.65 0 3.3 0 5 0 C6.66666667 3.33333333 8.33333333 6.66666667 10 10 C6.75791433 9.64950425 5.38472296 9.43778819 3.1875 6.9375 C2.795625 6.298125 2.40375 5.65875 2 5 C1.34 5.66 0.68 6.32 0 7 C0 4.69 0 2.38 0 0 Z " fill="#07A6A6" transform="translate(102,66)"/>
<path d="M0 0 C2.375 0.25 2.375 0.25 5 1 C6.3125 3.0625 6.3125 3.0625 7 5 C7.99 5 8.98 5 10 5 C8 7 8 7 5 7.25 C2 7 2 7 0 5 C-0.125 2.375 -0.125 2.375 0 0 Z " fill="#8EEBD8" transform="translate(82,90)"/>
<path d="M0 0 C1.2065625 0.0309375 1.2065625 0.0309375 2.4375 0.0625 C2.125 2.4375 2.125 2.4375 1.4375 5.0625 C0.4475 5.7225 -0.5425 6.3825 -1.5625 7.0625 C-2.5525 6.7325 -3.5425 6.4025 -4.5625 6.0625 C-3.48963568 0.08511307 -3.48963568 0.08511307 0 0 Z " fill="#59ECD5" transform="translate(99.5625,69.9375)"/>
<path d="M0 0 C0.66 0.33 1.32 0.66 2 1 C2 1.99 2 2.98 2 4 C3.32 4.33 4.64 4.66 6 5 C5.01 5.66 4.02 6.32 3 7 C2.67 7.99 2.34 8.98 2 10 C1.34 10 0.68 10 0 10 C-0.33 9.01 -0.66 8.02 -1 7 C-3.00016466 5.79117904 -3.00016466 5.79117904 -5 5 C-4.360625 4.731875 -3.72125 4.46375 -3.0625 4.1875 C-0.66868314 3.11332248 -0.66868314 3.11332248 0 0 Z " fill="#17A4A7" transform="translate(90,64)"/>
<path d="M0 0 C4.75 0.75 4.75 0.75 7 3 C7 4.32 7 5.64 7 7 C2.25 6.25 2.25 6.25 0 4 C0 2.68 0 1.36 0 0 Z " fill="#5CEDD5" transform="translate(96,79)"/>
<path d="M0 0 C0.99 0.33 1.98 0.66 3 1 C-3.40717489 8.63408072 -3.40717489 8.63408072 -7.3125 9.53125 C-9.5 9.5 -9.5 9.5 -13 9 C-13 8.34 -13 7.68 -13 7 C-11.783125 6.95875 -10.56625 6.9175 -9.3125 6.875 C-5.78728525 6.46800363 -4.24719867 5.68983267 -2 2.9375 C-1.34 1.968125 -0.68 0.99875 0 0 Z " fill="#DCF3E9" transform="translate(99,92)"/>
<path d="M0 0 C0.81210937 0.46019531 0.81210937 0.46019531 1.640625 0.9296875 C4.34450508 2.15628211 6.82462658 2.63743776 9.75 3.125 C10.73484375 3.29257813 11.7196875 3.46015625 12.734375 3.6328125 C13.85585938 3.81457031 13.85585938 3.81457031 15 4 C15 4.33 15 4.66 15 5 C13.06280622 5.05406122 11.12518079 5.09282025 9.1875 5.125 C8.10855469 5.14820312 7.02960937 5.17140625 5.91796875 5.1953125 C3 5 3 5 0 3 C0 2.01 0 1.02 0 0 Z " fill="#093B65" transform="translate(29,106)"/>
<path d="M0 0 C2.15942819 3.23914229 2.27232978 4.24859733 2.25 8 C2.25515625 8.86625 2.2603125 9.7325 2.265625 10.625 C2 13 2 13 0 16 C-0.19389096 13.5211787 -0.38040123 11.04219069 -0.5625 8.5625 C-0.61857422 7.85544922 -0.67464844 7.14839844 -0.73242188 6.41992188 C-0.86190993 4.61572163 -0.93521608 2.80768048 -1 1 C-0.67 0.67 -0.34 0.34 0 0 Z " fill="#093F65" transform="translate(125,14)"/>
<path d="M0 0 C2 2 2 2 2.0625 4.1875 C0.45844414 8.43353021 -2.68270254 10.99451118 -6 14 C-6.33 13.01 -6.66 12.02 -7 11 C-5.824375 10.2265625 -5.824375 10.2265625 -4.625 9.4375 C-1.44405752 6.4837677 -0.88506307 4.18393452 0 0 Z " fill="#006180" transform="translate(118,75)"/>
<path d="M0 0 C0.66 0 1.32 0 2 0 C3.5078125 2.1875 3.5078125 2.1875 5.125 5 C5.66382813 5.928125 6.20265625 6.85625 6.7578125 7.8125 C7.37269531 8.8953125 7.37269531 8.8953125 8 10 C7.01 10 6.02 10 5 10 C1.93193534 6.84169815 0.50057152 4.38000076 0 0 Z " fill="#143E62" transform="translate(1,111)"/>
<path d="M0 0 C0 1.65 0 3.3 0 5 C-0.804375 5.12375 -1.60875 5.2475 -2.4375 5.375 C-3.7059375 5.684375 -3.7059375 5.684375 -5 6 C-5.33 6.66 -5.66 7.32 -6 8 C-5.75 5.125 -5.75 5.125 -5 2 C-2.09090909 0 -2.09090909 0 0 0 Z " fill="#80E7D3" transform="translate(87,82)"/>
<path d="M0 0 C0.99 0.33 1.98 0.66 3 1 C0.35039045 4.63094642 -2.01824456 6.89851796 -6 9 C-6 8.01 -6 7.02 -6 6 C-4.37064759 4.62131719 -2.70250393 3.28725907 -1 2 C-0.67 1.34 -0.34 0.68 0 0 Z " fill="#0C2D42" transform="translate(121,116)"/>
<path d="M0 0 C1.65 0.33 3.3 0.66 5 1 C4.43628586 4.26954202 3.50037734 5.82575883 1 8 C0.01 7.67 -0.98 7.34 -2 7 C-1.34 7 -0.68 7 0 7 C0.12375 6.360625 0.2475 5.72125 0.375 5.0625 C0.58125 4.381875 0.7875 3.70125 1 3 C1.66 2.67 2.32 2.34 3 2 C2.01 1.34 1.02 0.68 0 0 Z " fill="#5DE1CF" transform="translate(92,67)"/>
<path d="M0 0 C1.2380014 3.57644848 0.74926071 6.33694766 0 10 C-0.99 8.68 -1.98 7.36 -3 6 C-2.01 4.02 -1.02 2.04 0 0 Z " fill="#DEF5EB" transform="translate(78,82)"/>
<path d="M0 0 C0.66 0 1.32 0 2 0 C1.25 7.75 1.25 7.75 -1 10 C-0.67 6.7 -0.34 3.4 0 0 Z " fill="#053257" transform="translate(125,106)"/>
<path d="M0 0 C2.62187494 1.04874998 3.79371361 1.64931313 5.25 4.125 C5.4975 4.74375 5.745 5.3625 6 6 C4.35 5.67 2.7 5.34 1 5 C0.67 3.35 0.34 1.7 0 0 Z " fill="#01C1B1" transform="translate(106,70)"/>
<path d="M0 0 C2.4375 0.75 2.4375 0.75 5 2 C5.8125 4.125 5.8125 4.125 6 6 C1.125 3.375 1.125 3.375 0 0 Z " fill="#09E5CC" transform="translate(97,79)"/>
<path d="M0 0 C0.99 0 1.98 0 3 0 C2.75 1.875 2.75 1.875 2 4 C-0.0625 5.25 -0.0625 5.25 -2 6 C-1.34 4.02 -0.68 2.04 0 0 Z " fill="#0CE5CC" transform="translate(99,71)"/>
<path d="M0 0 C0.66 0.33 1.32 0.66 2 1 C-0.3125 3.5 -0.3125 3.5 -3 6 C-3.99 6 -4.98 6 -6 6 C-5 3 -5 3 -2.5625 1.25 C-1.716875 0.8375 -0.87125 0.425 0 0 Z " fill="#0C3F57" transform="translate(11,4)"/>
</svg>
